REM DIRINDEX 1\2,1\3,1\4,1\5
REM DIRNAME "folder01","folder02","folder03","folder04","folder05"
TITLE ""
FILE "P1Q_t_1559-1568.mp3" MP3
  TRACK 01 AUDIO
    TITLE "0:"
    INDEX 01 00:00:00
  TRACK 02 AUDIO
    TITLE "3:cjc173_5656"
    INDEX 01 00:00:12
  TRACK 03 AUDIO
    TITLE "0:"
    INDEX 01 00:01:37
  TRACK 04 AUDIO
    TITLE "4:cjc173_5657"
    INDEX 01 00:01:61
  TRACK 05 AUDIO
    TITLE "0:"
    INDEX 01 00:02:60
  TRACK 06 AUDIO
    TITLE "5:cjc173_5658"
    INDEX 01 00:03:05
  TRACK 07 AUDIO
    TITLE "0:"
    INDEX 01 00:07:36
  TRACK 08 AUDIO
    TITLE "3:cjc173_5659"
    INDEX 01 00:08:06
  TRACK 09 AUDIO
    TITLE "0:"
    INDEX 01 00:09:31
  TRACK 10 AUDIO
    TITLE "4:cjc173_5660"
    INDEX 01 00:09:52
  TRACK 11 AUDIO
    TITLE "0:"
    INDEX 01 00:10:60
  TRACK 12 AUDIO
    TITLE "5:cjc173_5661"
    INDEX 01 00:11:04
  TRACK 13 AUDIO
    TITLE "0:"
    INDEX 01 00:15:55
  TRACK 14 AUDIO
    TITLE "3:cjc173_5662"
    INDEX 01 00:16:27
  TRACK 15 AUDIO
    TITLE "0:"
    INDEX 01 00:17:40
  TRACK 16 AUDIO
    TITLE "4:cjc173_5663"
    INDEX 01 00:17:60
  TRACK 17 AUDIO
    TITLE "0:"
    INDEX 01 00:21:07
  TRACK 18 AUDIO
    TITLE "5:cjc173_5664"
    INDEX 01 00:21:28
  TRACK 19 AUDIO
    TITLE "0:"
    INDEX 01 00:25:36
  TRACK 20 AUDIO
    TITLE "3:cjc173_5665"
    INDEX 01 00:26:04
  TRACK 21 AUDIO
    TITLE "0:"
    INDEX 01 00:27:17
  TRACK 22 AUDIO
    TITLE "4:cjc173_5666"
    INDEX 01 00:27:39
  TRACK 23 AUDIO
    TITLE "0:"
    INDEX 01 00:30:09
  TRACK 24 AUDIO
    TITLE "5:cjc173_5667"
    INDEX 01 00:30:31
  TRACK 25 AUDIO
    TITLE "0:"
    INDEX 01 00:35:65
  TRACK 26 AUDIO
    TITLE "3:cjc173_5668"
    INDEX 01 00:36:36
  TRACK 27 AUDIO
    TITLE "0:"
    INDEX 01 00:37:45
  TRACK 28 AUDIO
    TITLE "4:cjc173_5669"
    INDEX 01 00:37:66
  TRACK 29 AUDIO
    TITLE "0:"
    INDEX 01 00:40:37
  TRACK 30 AUDIO
    TITLE "5:cjc173_5670"
    INDEX 01 00:40:57
  TRACK 31 AUDIO
    TITLE "0:"
    INDEX 01 00:45:52
  TRACK 32 AUDIO
    TITLE "3:cjc173_5671"
    INDEX 01 00:46:22
  TRACK 33 AUDIO
    TITLE "0:"
    INDEX 01 00:47:53
  TRACK 34 AUDIO
    TITLE "4:cjc173_5672"
    INDEX 01 00:47:73
  TRACK 35 AUDIO
    TITLE "0:"
    INDEX 01 00:50:02
  TRACK 36 AUDIO
    TITLE "5:cjc173_5673"
    INDEX 01 00:50:22
  TRACK 37 AUDIO
    TITLE "0:"
    INDEX 01 00:55:56
  TRACK 38 AUDIO
    TITLE "3:cjc173_5674"
    INDEX 01 00:56:26
  TRACK 39 AUDIO
    TITLE "0:"
    INDEX 01 00:57:49
  TRACK 40 AUDIO
    TITLE "4:cjc173_5675"
    INDEX 01 00:57:71
  TRACK 41 AUDIO
    TITLE "0:"
    INDEX 01 00:59:11
  TRACK 42 AUDIO
    TITLE "5:cjc173_5676"
    INDEX 01 00:59:31
  TRACK 43 AUDIO
    TITLE "0:"
    INDEX 01 01:02:64
  TRACK 44 AUDIO
    TITLE "3:cjc173_5677"
    INDEX 01 01:03:34
  TRACK 45 AUDIO
    TITLE "0:"
    INDEX 01 01:04:44
  TRACK 46 AUDIO
    TITLE "4:cjc173_5678"
    INDEX 01 01:05:18
  TRACK 47 AUDIO
    TITLE "0:"
    INDEX 01 01:07:50
  TRACK 48 AUDIO
    TITLE "5:cjc173_5679"
    INDEX 01 01:07:65
  TRACK 49 AUDIO
    TITLE "0:"
    INDEX 01 01:11:52
  TRACK 50 AUDIO
    TITLE "3:cjc173_5680"
    INDEX 01 01:12:22
  TRACK 51 AUDIO
    TITLE "0:"
    INDEX 01 01:13:39
  TRACK 52 AUDIO
    TITLE "4:cjc173_5681"
    INDEX 01 01:13:62
  TRACK 53 AUDIO
    TITLE "0:"
    INDEX 01 01:15:69
  TRACK 54 AUDIO
    TITLE "5:cjc173_5682"
    INDEX 01 01:16:13
  TRACK 55 AUDIO
    TITLE "0:"
    INDEX 01 01:20:01
  TRACK 56 AUDIO
    TITLE "3:cjc173_5683"
    INDEX 01 01:20:49
  TRACK 57 AUDIO
    TITLE "0:"
    INDEX 01 01:22:20
  TRACK 58 AUDIO
    TITLE "4:cjc173_5684"
    INDEX 01 01:22:40
  TRACK 59 AUDIO
    TITLE "0:"
    INDEX 01 01:24:58
  TRACK 60 AUDIO
    TITLE "5:cjc173_5685"
    INDEX 01 01:25:01
  TRACK 61 AUDIO
    TITLE "0:"
    INDEX 01 01:29:36
